<svg xmlns="http://www.w3.org/2000/svg" viewBox="0 0 24 24"><path fill="#5CB39B" d="m10.782 14.559-3.519-1.056-4.639 1.664-.8.32 3.359 1.056 5.599-1.984zm5.759 1.728-5.023 1.76-.832.256-3.423-1.056 5.695-2.048 3.583 1.088zm2.175.64-5.855 2.111 3.295 1.088 5.407-1.919.64-.288-3.487-.992z"/><path fill="#ECB731" d="m16.157 20.126-3.295-1.088-3.295 1.184 3.359 1.056 3.231-1.152zm-8.894-2.879 3.423 1.056c-2.879.96-5.663 1.056-8.382.32-1.44-.384-2.239-.896-2.303-1.6-.032-.48.608-1.024 1.824-1.536l3.359 1.056-.864.32c-.256.096-.48.224-.64.32-.16.16-.096.32.16.48l1.28.16 1.344-.256.799-.32z"/><path fill="#5175B8" d="m9.023 12.928 3.455.992-1.695.64-3.519-1.056 1.759-.576zm3.935 2.271c1.663-.64 3.263-.96 4.799-.992a11.6 11.6 0 0 1 4.223.576c1.28.416 1.984.896 2.015 1.504.064.64-.512 1.152-1.791 1.631l-3.487-.992 1.184-.448c.48-.16.704-.32.64-.512-.064-.16-.224-.288-.576-.32l-1.184-.064-.896.224-1.344.48-3.583-1.087z"/><path fill="#CC2229" d="M8.959 2.722v17.34l3.967 1.216V6.785c0-.384.032-.64.192-.8.16-.224.32-.256.544-.16.544.16.8.64.8 1.44v5.823c1.216.576 2.304.64 3.103.032.832-.576 1.28-1.6 1.28-3.135 0-1.6-.32-2.815-1.024-3.615-.64-.864-1.76-1.568-3.423-2.143-2.176-.705-4-1.217-5.439-1.505z"/></svg>