<svg xmlns="http://www.w3.org/2000/svg" viewBox="0 0 333333 222220" shape-rendering="geometricPrecision" text-rendering="geometricPrecision" image-rendering="optimizeQuality" fill-rule="evenodd" clip-rule="evenodd"><defs><linearGradient id="a" gradientUnits="userSpaceOnUse" x1="-5920.47" y1="162897" x2="339254" y2="60205.5"><stop offset="0" stop-color="#ff4c1d"/><stop offset="1" stop-color="#9b0063"/></linearGradient></defs><path d="M2778 64839C1000 66117 0 68172 0 70256v56c0 889 194 1778 556 2639l31947 72340c1389 3167 5000 4722 8334 3556 20891-7445 93230-31002 140067-18335 0 0-46948 2778-89452 36059-2389 1889-3195 5167-1944 7945 3444 7778 10362 23446 14279 32280l5500 12918c1306 3056 5500 3389 7334 611 9918-14918 26613-22363 42670-28891 16446-6667 33614-11612 51115-14557 18613-3167 37670-4000 56505-2333 3139 278 6056-1667 7000-4667l14446-46059c833-2722-167-5695-2500-7361-16057-11668-79729-50754-191683-35059 0 0 95563-54838 216824 5445 3695 1833 8112-111 9362-4000l12696-40614c167-639 278-1278 278-1945v-167c0-2306-1278-4500-3389-5695C314749 25838 263217 2 192323 2 137985 2 72313 15170 2779 64841z" fill="url(#a)"/></svg>