<svg xmlns="http://www.w3.org/2000/svg" xmlns:xlink="http://www.w3.org/1999/xlink" version="1.1" width="256" height="256" viewBox="0 0 256 256" xml:space="preserve">

<defs>
</defs>
<g style="stroke: none; stroke-width: 0; stroke-dasharray: none; stroke-linecap: butt; stroke-linejoin: miter; stroke-miterlimit: 10; fill: none; fill-rule: nonzero; opacity: 1;" transform="translate(1.4065934065934016 1.4065934065934016) scale(2.81 2.81)" >
	<path d="M 41.257 10.983 c -3.77 -1.913 -9.585 -3.967 -12.796 -4.522 c -1.125 -0.193 -3.045 -0.303 -4.265 -0.24 c -2.651 0.134 -2.533 -0.004 1.718 -2.012 c 3.534 -1.67 6.482 -2.651 10.486 -3.492 C 40.9 -0.23 49.363 -0.24 53.792 0.693 c 4.783 1.009 10.417 3.105 13.591 5.06 l 0.945 0.579 l -2.164 -0.109 c -4.303 -0.217 -10.574 1.521 -17.306 4.795 c -2.03 0.989 -3.795 1.777 -3.925 1.756 c -0.129 -0.025 -1.784 -0.831 -3.68 -1.793 H 41.257 z" style="stroke: none; stroke-width: 1; stroke-dasharray: none; stroke-linecap: butt; stroke-linejoin: miter; stroke-miterlimit: 10; fill: rgb(16,124,16); fill-rule: nonzero; opacity: 1;" transform=" matrix(1 0 0 1 0 0) " stroke-linecap="round" />
	<path d="M 81.19 70.83 c 0.415 -2.024 -0.11 -5.74 -1.338 -9.489 c -2.661 -8.118 -11.556 -23.219 -19.725 -33.488 l -2.572 -3.233 l 2.783 -2.554 c 3.632 -3.335 6.154 -5.332 8.876 -7.029 c 2.146 -1.338 5.215 -2.523 6.534 -2.523 c 0.812 0 3.676 2.98 5.986 6.22 c 3.58 5.018 6.212 11.113 7.546 17.449 c 0.862 4.098 0.935 12.859 0.139 16.947 c -0.659 3.354 -2.039 7.701 -3.377 10.65 c -1.014 2.209 -3.513 6.501 -4.61 7.897 c -0.565 0.718 -0.565 0.717 -0.251 -0.832 L 81.19 70.83 z" style="stroke: none; stroke-width: 1; stroke-dasharray: none; stroke-linecap: butt; stroke-linejoin: miter; stroke-miterlimit: 10; fill: rgb(16,124,16); fill-rule: nonzero; opacity: 1;" transform=" matrix(1 0 0 1 0 0) " stroke-linecap="round" />
	<path d="M 40.515 89.815 c -6.929 -0.664 -13.944 -3.152 -19.97 -7.084 c -5.05 -3.293 -6.189 -4.649 -6.189 -7.352 c 0 -5.429 5.97 -14.94 16.184 -25.779 c 5.799 -6.158 13.878 -13.371 14.751 -13.177 c 1.7 0.379 15.28 13.626 20.365 19.864 c 8.04 9.859 11.734 17.934 9.857 21.533 c -1.427 2.736 -10.284 8.084 -16.79 10.139 C 53.359 89.653 46.316 90.37 40.515 89.815 z" style="stroke: none; stroke-width: 1; stroke-dasharray: none; stroke-linecap: butt; stroke-linejoin: miter; stroke-miterlimit: 10; fill: rgb(16,124,16); fill-rule: nonzero; opacity: 1;" transform=" matrix(1 0 0 1 0 0) " stroke-linecap="round" />
	<path d="M 7.535 69.735 C 3.339 63.297 1.219 56.96 0.196 47.793 c -0.339 -3.027 -0.22 -4.757 0.766 -10.971 c 1.226 -7.736 5.635 -16.696 10.935 -22.205 c 2.256 -2.342 2.457 -2.405 5.208 -1.474 c 3.335 1.129 6.9 3.592 12.43 8.594 l 3.23 2.921 L 31 26.821 c -8.184 10.047 -16.821 24.296 -20.073 33.109 C 9.161 64.719 8.45 69.528 9.213 71.53 c 0.512 1.353 0.042 0.849 -1.683 -1.792 L 7.535 69.735 z" style="stroke: none; stroke-width: 1; stroke-dasharray: none; stroke-linecap: butt; stroke-linejoin: miter; stroke-miterlimit: 10; fill: rgb(16,124,16); fill-rule: nonzero; opacity: 1;" transform=" matrix(1 0 0 1 0 0) " stroke-linecap="round" />
</g>
</svg>